<?xml version="1.0" standalone="no"?>
<!DOCTYPE svg PUBLIC "-//W3C//DTD SVG 20010904//EN"
 "http://www.w3.org/TR/2001/REC-SVG-20010904/DTD/svg10.dtd">
<svg version="1.0" xmlns="http://www.w3.org/2000/svg"
 width="592.000000pt" height="592.000000pt" viewBox="0 0 592.000000 592.000000"
 preserveAspectRatio="xMidYMid meet">
<metadata>
Created by potrace 1.14, written by Peter Selinger 2001-2017
</metadata>
<g transform="translate(0.000000,592.000000) scale(0.100000,-0.100000)"
fill="#000000" stroke="none">
<path d="M2227 4192 c-64 -70 -230 -569 -321 -962 l-31 -135 -75 -7 c-351 -36
-620 -93 -653 -141 -28 -40 95 440 194 753 47 151 49 181 13 209 -30 24 -55
26 -84 9 -26 -16 -85 -197 -181 -552 -91 -340 -141 -504 -195 -650 -143 -381
-324 -616 -478 -618 -158 -3 -226 189 -213 602 12 368 77 752 192 1142 41 136
43 177 15 203 -24 22 -76 24 -94 4 -37 -39 -153 -431 -205 -694 -57 -287 -65
-375 -65 -695 0 -274 1 -301 22 -373 44 -159 118 -268 213 -318 34 -18 61 -23
119 -24 66 0 84 4 145 34 136 67 293 259 361 441 11 31 12 21 7 -90 -6 -140 9
-306 32 -351 21 -39 67 -43 97 -8 15 17 16 38 11 162 -8 190 22 506 68 717 10
48 13 52 22 33 18 -41 153 -71 371 -82 179 -9 220 -21 258 -74 27 -38 27 -58
3 -232 -20 -148 -27 -479 -12 -566 10 -59 37 -89 82 -89 24 0 39 7 54 26 20
25 21 40 21 214 0 183 15 384 44 605 25 184 39 270 45 277 3 3 105 14 226 22
121 9 246 18 278 20 56 4 58 3 53 -17 -65 -266 -103 -579 -93 -772 9 -161 25
-195 96 -195 20 0 36 8 49 25 17 22 20 47 25 262 6 233 19 367 63 606 l17 97
39 0 c21 0 57 -9 79 -21 49 -24 87 -19 118 17 26 29 27 59 3 84 -27 29 -67 40
-146 40 l-73 0 23 98 c61 251 183 639 205 653 7 4 13 26 13 49 1 38 -2 44 -33
60 -45 25 -71 14 -98 -41 -46 -95 -196 -562 -253 -786 l-11 -43 -162 -1 c-89
0 -216 -4 -282 -8 -66 -4 -121 -7 -121 -6 -1 0 15 72 36 160 74 319 156 590
234 773 20 46 36 95 36 108 0 52 -69 84 -103 46z m-390 -1297 c-10 -53 -19
-66 -32 -45 -13 20 -84 49 -151 62 l-69 12 90 12 c50 6 108 12 131 13 l41 1
-10 -55z"/>
<path d="M3575 4101 c-40 -45 -154 -391 -225 -686 -122 -506 -183 -947 -184
-1325 0 -305 16 -380 85 -380 75 0 92 35 78 161 -18 152 1 469 46 769 41 273
150 727 215 893 98 252 226 387 367 387 74 0 121 -42 153 -137 28 -86 37 -262
18 -378 l-13 -79 -80 -12 c-102 -15 -155 -29 -231 -64 -328 -149 -447 -464
-217 -576 116 -57 275 -10 408 121 34 34 80 89 103 123 42 61 134 240 144 280
5 19 13 21 51 20 51 -3 77 14 77 47 0 31 -30 55 -69 55 l-32 0 7 48 c15 93 8
262 -14 355 -55 224 -155 327 -317 327 -121 -1 -222 -55 -302 -164 -24 -32
-43 -56 -43 -53 0 3 18 50 40 105 45 113 48 134 20 162 -25 25 -62 26 -85 1z
m459 -1001 c-125 -245 -277 -373 -387 -326 -65 27 -74 81 -27 162 16 29 53 73
82 98 78 69 293 169 376 175 8 1 -10 -44 -44 -109z"/>
<path d="M5280 4064 c-228 -49 -473 -190 -591 -340 -156 -199 -152 -374 12
-594 50 -67 293 -329 432 -466 l53 -51 -61 -11 c-118 -22 -319 -83 -402 -122
-213 -100 -311 -216 -321 -383 -4 -72 -2 -82 27 -142 53 -107 148 -172 287
-196 184 -32 428 52 590 204 117 109 164 203 164 328 0 73 -27 175 -60 224
l-19 30 124 32 c127 32 283 93 297 116 21 33 -6 87 -45 87 -9 0 -51 -14 -93
-30 -41 -17 -137 -47 -211 -66 l-136 -36 -71 79 c-39 43 -136 146 -216 228
-211 219 -275 310 -299 427 -45 217 149 441 467 542 146 46 294 51 369 13 92
-48 103 -154 30 -291 -39 -73 -173 -216 -284 -303 -74 -58 -83 -68 -83 -98 0
-37 14 -52 56 -61 41 -8 97 32 230 164 231 229 310 412 238 556 -32 65 -67
102 -124 131 -90 46 -231 57 -360 29z m-20 -1581 c54 -117 64 -216 29 -307
-41 -110 -152 -211 -294 -268 -72 -29 -91 -32 -186 -33 -98 0 -109 2 -165 30
-116 60 -156 172 -99 284 44 88 163 170 320 221 86 29 344 98 366 99 9 1 22
-11 29 -26z"/>
</g>
</svg>
